<svg width="24" height="24" viewBox="0 0 24 24" fill="none" xmlns="http://www.w3.org/2000/svg">
<path d="M7 19C5.9 19 4.95833 18.6083 4.175 17.825C3.39167 17.0417 3 16.1 3 15V5H19C19.55 5 20.0208 5.19583 20.4125 5.5875C20.8042 5.97917 21 6.45 21 7V10C21 10.55 20.8042 11.0208 20.4125 11.4125C20.0208 11.8042 19.55 12 19 12H17V15C17 16.1 16.6083 17.0417 15.825 17.825C15.0417 18.6083 14.1 19 13 19H7ZM7 17H13C13.55 17 14.0208 16.8042 14.4125 16.4125C14.8042 16.0208 15 15.55 15 15V7H5V15C5 15.55 5.19583 16.0208 5.5875 16.4125C5.97917 16.8042 6.45 17 7 17ZM17 10H19V7H17V10ZM7 17H5H15H7Z" fill="black"/>
</svg>
