<svg width="24" height="24" viewBox="0 0 24 24" fill="none" xmlns="http://www.w3.org/2000/svg">
<path fill-rule="evenodd" clip-rule="evenodd" d="M5.0375 16.9625C6.39583 18.3208 8.05 19 10 19C11.95 19 13.6042 18.3208 14.9625 16.9625C16.3208 15.6042 17 13.95 17 12V11H17.5C18.4667 11 19.2917 10.6583 19.975 9.975C20.6583 9.29167 21 8.46667 21 7.5C21 6.53333 20.6583 5.70833 19.975 5.025C19.2917 4.34167 18.4667 4 17.5 4H5C4.45 4 3.97917 4.19583 3.5875 4.5875C3.19583 4.97917 3 5.45 3 6V12C3 13.95 3.67917 15.6042 5.0375 16.9625ZM15 9H5V6H15V9ZM13.5375 15.5375C12.5625 16.5125 11.3833 17 10 17C8.61667 17 7.4375 16.5125 6.4625 15.5375C5.4875 14.5625 5 13.3833 5 12V11H15V12C15 13.3833 14.5125 14.5625 13.5375 15.5375ZM17.5 9H17V6H17.5C17.9167 6 18.2708 6.14583 18.5625 6.4375C18.8542 6.72917 19 7.08333 19 7.5C19 7.91667 18.8542 8.27083 18.5625 8.5625C18.2708 8.85417 17.9167 9 17.5 9Z" fill="black"/>
</svg>
