<svg width="24" height="24" viewBox="0 0 24 24" fill="none" xmlns="http://www.w3.org/2000/svg">
<path d="M6 5L7.75 17.28C7.81792 17.7606 8.05827 18.2 8.42624 18.5165C8.79421 18.8329 9.26469 19.0048 9.75 19H14.29C14.7753 19.0048 15.2458 18.8329 15.6138 18.5165C15.9817 18.2 16.2221 17.7606 16.29 17.28L18 5" stroke="black" stroke-width="2" stroke-linecap="round" stroke-linejoin="round"/>
<path d="M6 5L18 5" stroke="black" stroke-width="2" stroke-linecap="round" stroke-linejoin="round"/>
<path d="M7 12.0001C7.79175 11.6684 8.64158 11.4976 9.5 11.4976C10.3584 11.4976 11.2083 11.6684 12 12.0001C12.7917 12.3318 13.6416 12.5026 14.5 12.5026C15.3584 12.5026 16.2083 12.3318 17 12.0001" stroke="black" stroke-width="2" stroke-linecap="round" stroke-linejoin="round"/>
</svg>
